<svg xmlns="http://www.w3.org/2000/svg" viewBox="0 0 640 423" width="100%" style="background:#1a1a22;font-family:system-ui,sans-serif;border-radius:10px;">
  <text x="16" y="34" fill="#f1f3f5" font-size="14" font-weight="700">N-Body (5-body Solar System) · 30 runs · Lower is better</text>
  <text x="122" y="73" fill="#dee2e6" font-size="12" font-weight="500" text-anchor="end">Zig</text>
  <rect x="130" y="55" width="420" height="24" rx="5" fill="#2d2d3a"/>
  <rect x="130" y="55" width="106.7" height="24" rx="5" fill="hsl(90,68%,52%)"/>
  <text x="243.67406587661802" y="73" fill="#f8f9fa" font-size="11" font-weight="700">463 ms</text>
  <text x="122" y="109" fill="#dee2e6" font-size="12" font-weight="500" text-anchor="end">C (GCC)</text>
  <rect x="130" y="91" width="420" height="24" rx="5" fill="#2d2d3a"/>
  <rect x="130" y="91" width="132.3" height="24" rx="5" fill="hsl(82,68%,52%)"/>
  <text x="269.3016523386233" y="109" fill="#f8f9fa" font-size="11" font-weight="700">575 ms</text>
  <text x="122" y="145" fill="#dee2e6" font-size="12" font-weight="500" text-anchor="end">Rust</text>
  <rect x="130" y="127" width="420" height="24" rx="5" fill="#2d2d3a"/>
  <rect x="130" y="127" width="137.7" height="24" rx="5" fill="hsl(81,68%,52%)"/>
  <text x="274.6700214157959" y="145" fill="#f8f9fa" font-size="11" font-weight="700">598 ms</text>
  <text x="122" y="181" fill="#dee2e6" font-size="12" font-weight="500" text-anchor="end">C++ (GCC)</text>
  <rect x="130" y="163" width="420" height="24" rx="5" fill="#2d2d3a"/>
  <rect x="130" y="163" width="141.7" height="24" rx="5" fill="hsl(80,68%,52%)"/>
  <text x="278.6621529912287" y="181" fill="#f8f9fa" font-size="11" font-weight="700">615 ms</text>
  <text x="122" y="217" fill="#dee2e6" font-size="12" font-weight="500" text-anchor="end">Node.js</text>
  <rect x="130" y="199" width="420" height="24" rx="5" fill="#2d2d3a"/>
  <rect x="130" y="199" width="212.1" height="24" rx="5" fill="hsl(59,68%,52%)"/>
  <text x="349.1075572661033" y="217" fill="#f8f9fa" font-size="11" font-weight="700">922 ms</text>
  <text x="122" y="253" fill="#dee2e6" font-size="12" font-weight="500" text-anchor="end">Deno</text>
  <rect x="130" y="235" width="420" height="24" rx="5" fill="#2d2d3a"/>
  <rect x="130" y="235" width="212.7" height="24" rx="5" fill="hsl(59,68%,52%)"/>
  <text x="349.6752391620813" y="253" fill="#f8f9fa" font-size="11" font-weight="700">924 ms</text>
  <text x="122" y="289" fill="#dee2e6" font-size="12" font-weight="500" text-anchor="end">Go</text>
  <rect x="130" y="271" width="420" height="24" rx="5" fill="#2d2d3a"/>
  <rect x="130" y="271" width="235.8" height="24" rx="5" fill="hsl(53,68%,52%)"/>
  <text x="372.7849660270492" y="289" fill="#f8f9fa" font-size="11" font-weight="700">1.024 s</text>
  <text x="122" y="325" fill="#dee2e6" font-size="12" font-weight="500" text-anchor="end">Julia</text>
  <rect x="130" y="307" width="420" height="24" rx="5" fill="#2d2d3a"/>
  <rect x="130" y="307" width="271.5" height="24" rx="5" fill="hsl(42,68%,52%)"/>
  <text x="408.4840975223142" y="325" fill="#f8f9fa" font-size="11" font-weight="700">1.179 s</text>
  <text x="122" y="361" fill="#dee2e6" font-size="12" font-weight="500" text-anchor="end">Bun</text>
  <rect x="130" y="343" width="420" height="24" rx="5" fill="#2d2d3a"/>
  <rect x="130" y="343" width="303.9" height="24" rx="5" fill="hsl(33,68%,52%)"/>
  <text x="440.8801798351636" y="361" fill="#f8f9fa" font-size="11" font-weight="700">1.320 s</text>
  <text x="122" y="397" fill="#dee2e6" font-size="12" font-weight="500" text-anchor="end">LuaJIT</text>
  <rect x="130" y="379" width="420" height="24" rx="5" fill="#2d2d3a"/>
  <rect x="130" y="379" width="420.0" height="24" rx="5" fill="hsl(0,68%,52%)"/>
  <text x="557" y="397" fill="#f8f9fa" font-size="11" font-weight="700">1.825 s</text>
</svg>