<svg xmlns="http://www.w3.org/2000/svg" viewBox="0 0 640 423" width="100%" style="background:#1a1a22;font-family:system-ui,sans-serif;border-radius:10px;">
  <text x="16" y="34" fill="#f1f3f5" font-size="14" font-weight="700">N-Body (5-body Solar System) · 30 runs · Lower is better</text>
  <text x="122" y="73" fill="#dee2e6" font-size="12" font-weight="500" text-anchor="end">Zig</text>
  <rect x="130" y="55" width="420" height="24" rx="5" fill="#2d2d3a"/>
  <rect x="130" y="55" width="105.3" height="24" rx="5" fill="hsl(90,68%,52%)"/>
  <text x="242.3211618629096" y="73" fill="#f8f9fa" font-size="11" font-weight="700">450 ms</text>
  <text x="122" y="109" fill="#dee2e6" font-size="12" font-weight="500" text-anchor="end">C (GCC)</text>
  <rect x="130" y="91" width="420" height="24" rx="5" fill="#2d2d3a"/>
  <rect x="130" y="91" width="131.5" height="24" rx="5" fill="hsl(82,68%,52%)"/>
  <text x="268.5447250578004" y="109" fill="#f8f9fa" font-size="11" font-weight="700">562 ms</text>
  <text x="122" y="145" fill="#dee2e6" font-size="12" font-weight="500" text-anchor="end">Rust</text>
  <rect x="130" y="127" width="420" height="24" rx="5" fill="#2d2d3a"/>
  <rect x="130" y="127" width="136.0" height="24" rx="5" fill="hsl(81,68%,52%)"/>
  <text x="272.9830819463535" y="145" fill="#f8f9fa" font-size="11" font-weight="700">581 ms</text>
  <text x="122" y="181" fill="#dee2e6" font-size="12" font-weight="500" text-anchor="end">C++ (GCC)</text>
  <rect x="130" y="163" width="420" height="24" rx="5" fill="#2d2d3a"/>
  <rect x="130" y="163" width="140.7" height="24" rx="5" fill="hsl(80,68%,52%)"/>
  <text x="277.71016020480374" y="181" fill="#f8f9fa" font-size="11" font-weight="700">601 ms</text>
  <text x="122" y="217" fill="#dee2e6" font-size="12" font-weight="500" text-anchor="end">Deno</text>
  <rect x="130" y="199" width="420" height="24" rx="5" fill="#2d2d3a"/>
  <rect x="130" y="199" width="204.4" height="24" rx="5" fill="hsl(62,68%,52%)"/>
  <text x="341.3548971216934" y="217" fill="#f8f9fa" font-size="11" font-weight="700">873 ms</text>
  <text x="122" y="253" fill="#dee2e6" font-size="12" font-weight="500" text-anchor="end">Node.js</text>
  <rect x="130" y="235" width="420" height="24" rx="5" fill="#2d2d3a"/>
  <rect x="130" y="235" width="208.1" height="24" rx="5" fill="hsl(61,68%,52%)"/>
  <text x="345.0937204964251" y="253" fill="#f8f9fa" font-size="11" font-weight="700">889 ms</text>
  <text x="122" y="289" fill="#dee2e6" font-size="12" font-weight="500" text-anchor="end">Go</text>
  <rect x="130" y="271" width="420" height="24" rx="5" fill="#2d2d3a"/>
  <rect x="130" y="271" width="236.1" height="24" rx="5" fill="hsl(53,68%,52%)"/>
  <text x="373.05443105039706" y="289" fill="#f8f9fa" font-size="11" font-weight="700">1.008 s</text>
  <text x="122" y="325" fill="#dee2e6" font-size="12" font-weight="500" text-anchor="end">Julia</text>
  <rect x="130" y="307" width="420" height="24" rx="5" fill="#2d2d3a"/>
  <rect x="130" y="307" width="243.2" height="24" rx="5" fill="hsl(51,68%,52%)"/>
  <text x="380.20520899093" y="325" fill="#f8f9fa" font-size="11" font-weight="700">1.039 s</text>
  <text x="122" y="361" fill="#dee2e6" font-size="12" font-weight="500" text-anchor="end">Bun</text>
  <rect x="130" y="343" width="420" height="24" rx="5" fill="#2d2d3a"/>
  <rect x="130" y="343" width="290.0" height="24" rx="5" fill="hsl(37,68%,52%)"/>
  <text x="427.0359914645207" y="361" fill="#f8f9fa" font-size="11" font-weight="700">1.239 s</text>
  <text x="122" y="397" fill="#dee2e6" font-size="12" font-weight="500" text-anchor="end">LuaJIT</text>
  <rect x="130" y="379" width="420" height="24" rx="5" fill="#2d2d3a"/>
  <rect x="130" y="379" width="420.0" height="24" rx="5" fill="hsl(0,68%,52%)"/>
  <text x="557" y="397" fill="#f8f9fa" font-size="11" font-weight="700">1.794 s</text>
</svg>