<svg xmlns="http://www.w3.org/2000/svg" viewBox="0 0 600 454" width="100%" style="background-color: #1e1e24; font-family: system-ui, -apple-system, sans-serif; border-radius: 8px;">
  <text x="20" y="30" fill="#f8f9fa" font-size="16" font-weight="bold">N-Body Simulation Speed Comparison (Lower is Better)</text>
  <text x="110" y="68" fill="#e9ecef" font-size="12" font-weight="500" text-anchor="end">Zig</text>
  <rect x="120" y="50" width="400" height="24" rx="4" fill="#2d2d35" />
  <rect x="120" y="50" width="73.18462080344325" height="24" rx="4" fill="hsl(98, 70%, 55%)" />
  <text x="201.18462080344324" y="68" fill="#f8f9fa" font-size="12" font-weight="bold">734.6 ms</text>
  <text x="110" y="104" fill="#e9ecef" font-size="12" font-weight="500" text-anchor="end">Rust</text>
  <rect x="120" y="86" width="400" height="24" rx="4" fill="#2d2d35" />
  <rect x="120" y="86" width="100.41771345385098" height="24" rx="4" fill="hsl(90, 70%, 55%)" />
  <text x="228.41771345385098" y="104" fill="#f8f9fa" font-size="12" font-weight="bold">1.008 s</text>
  <text x="110" y="140" fill="#e9ecef" font-size="12" font-weight="500" text-anchor="end">C (GCC)</text>
  <rect x="120" y="122" width="400" height="24" rx="4" fill="#2d2d35" />
  <rect x="120" y="122" width="101.64219326222204" height="24" rx="4" fill="hsl(90, 70%, 55%)" />
  <text x="229.64219326222204" y="140" fill="#f8f9fa" font-size="12" font-weight="bold">1.020 s</text>
  <text x="110" y="176" fill="#e9ecef" font-size="12" font-weight="500" text-anchor="end">C++ (GCC)</text>
  <rect x="120" y="158" width="400" height="24" rx="4" fill="#2d2d35" />
  <rect x="120" y="158" width="108.01985889440881" height="24" rx="4" fill="hsl(88, 70%, 55%)" />
  <text x="236.0198588944088" y="176" fill="#f8f9fa" font-size="12" font-weight="bold">1.084 s</text>
  <text x="110" y="212" fill="#e9ecef" font-size="12" font-weight="500" text-anchor="end">C++ (MSVC)</text>
  <rect x="120" y="194" width="400" height="24" rx="4" fill="#2d2d35" />
  <rect x="120" y="194" width="124.85939615851633" height="24" rx="4" fill="hsl(83, 70%, 55%)" />
  <text x="252.85939615851635" y="212" fill="#f8f9fa" font-size="12" font-weight="bold">1.253 s</text>
  <text x="110" y="248" fill="#e9ecef" font-size="12" font-weight="500" text-anchor="end">Go</text>
  <rect x="120" y="230" width="400" height="24" rx="4" fill="#2d2d35" />
  <rect x="120" y="230" width="181.6334352225504" height="24" rx="4" fill="hsl(66, 70%, 55%)" />
  <text x="309.63343522255036" y="248" fill="#f8f9fa" font-size="12" font-weight="bold">1.823 s</text>
  <text x="110" y="284" fill="#e9ecef" font-size="12" font-weight="500" text-anchor="end">Julia</text>
  <rect x="120" y="266" width="400" height="24" rx="4" fill="#2d2d35" />
  <rect x="120" y="266" width="251.6616581749617" height="24" rx="4" fill="hsl(45, 70%, 55%)" />
  <text x="379.6616581749617" y="284" fill="#f8f9fa" font-size="12" font-weight="bold">2.526 s</text>
  <text x="110" y="320" fill="#e9ecef" font-size="12" font-weight="500" text-anchor="end">Node.js</text>
  <rect x="120" y="302" width="400" height="24" rx="4" fill="#2d2d35" />
  <rect x="120" y="302" width="279.4382899142593" height="24" rx="4" fill="hsl(36, 70%, 55%)" />
  <text x="407.4382899142593" y="320" fill="#f8f9fa" font-size="12" font-weight="bold">2.805 s</text>
  <text x="110" y="356" fill="#e9ecef" font-size="12" font-weight="500" text-anchor="end">Deno</text>
  <rect x="120" y="338" width="400" height="24" rx="4" fill="#2d2d35" />
  <rect x="120" y="338" width="288.1351391706619" height="24" rx="4" fill="hsl(34, 70%, 55%)" />
  <text x="416.1351391706619" y="356" fill="#f8f9fa" font-size="12" font-weight="bold">2.892 s</text>
  <text x="110" y="392" fill="#e9ecef" font-size="12" font-weight="500" text-anchor="end">Bun</text>
  <rect x="120" y="374" width="400" height="24" rx="4" fill="#2d2d35" />
  <rect x="120" y="374" width="369.382653360893" height="24" rx="4" fill="hsl(9, 70%, 55%)" />
  <text x="497.382653360893" y="392" fill="#f8f9fa" font-size="12" font-weight="bold">3.708 s</text>
  <text x="110" y="428" fill="#e9ecef" font-size="12" font-weight="500" text-anchor="end">LuaJIT</text>
  <rect x="120" y="410" width="400" height="24" rx="4" fill="#2d2d35" />
  <rect x="120" y="410" width="400" height="24" rx="4" fill="hsl(0, 70%, 55%)" />
  <text x="528" y="428" fill="#f8f9fa" font-size="12" font-weight="bold">4.015 s</text>
</svg>