<svg xmlns="http://www.w3.org/2000/svg" viewBox="0 0 640 351" width="100%" style="background:#1a1a22;font-family:system-ui,sans-serif;border-radius:10px;">
  <text x="16" y="34" fill="#f1f3f5" font-size="14" font-weight="700">Mandelbrot · 5 runs · Lower is better</text>
  <text x="122" y="73" fill="#dee2e6" font-size="12" font-weight="500" text-anchor="end">C (GCC)</text>
  <rect x="130" y="55" width="420" height="24" rx="5" fill="#2d2d3a"/>
  <rect x="130" y="55" width="365.3" height="24" rx="5" fill="hsl(16,68%,52%)"/>
  <text x="502.2709941624683" y="73" fill="#f8f9fa" font-size="11" font-weight="700">2.237 s</text>
  <text x="122" y="109" fill="#dee2e6" font-size="12" font-weight="500" text-anchor="end">C++ (GCC)</text>
  <rect x="130" y="91" width="420" height="24" rx="5" fill="#2d2d3a"/>
  <rect x="130" y="91" width="369.5" height="24" rx="5" fill="hsl(14,68%,52%)"/>
  <text x="506.4909208813524" y="109" fill="#f8f9fa" font-size="11" font-weight="700">2.263 s</text>
  <text x="122" y="145" fill="#dee2e6" font-size="12" font-weight="500" text-anchor="end">Bun</text>
  <rect x="130" y="127" width="420" height="24" rx="5" fill="#2d2d3a"/>
  <rect x="130" y="127" width="401.1" height="24" rx="5" fill="hsl(5,68%,52%)"/>
  <text x="538.1046358395299" y="145" fill="#f8f9fa" font-size="11" font-weight="700">2.457 s</text>
  <text x="122" y="181" fill="#dee2e6" font-size="12" font-weight="500" text-anchor="end">Rust</text>
  <rect x="130" y="163" width="420" height="24" rx="5" fill="#2d2d3a"/>
  <rect x="130" y="163" width="406.3" height="24" rx="5" fill="hsl(4,68%,52%)"/>
  <text x="543.2956527336555" y="181" fill="#f8f9fa" font-size="11" font-weight="700">2.488 s</text>
  <text x="122" y="217" fill="#dee2e6" font-size="12" font-weight="500" text-anchor="end">Zig</text>
  <rect x="130" y="199" width="420" height="24" rx="5" fill="#2d2d3a"/>
  <rect x="130" y="199" width="407.4" height="24" rx="5" fill="hsl(4,68%,52%)"/>
  <text x="544.3870019066917" y="217" fill="#f8f9fa" font-size="11" font-weight="700">2.495 s</text>
  <text x="122" y="253" fill="#dee2e6" font-size="12" font-weight="500" text-anchor="end">Node.js</text>
  <rect x="130" y="235" width="420" height="24" rx="5" fill="#2d2d3a"/>
  <rect x="130" y="235" width="416.0" height="24" rx="5" fill="hsl(1,68%,52%)"/>
  <text x="552.9624597629543" y="253" fill="#f8f9fa" font-size="11" font-weight="700">2.548 s</text>
  <text x="122" y="289" fill="#dee2e6" font-size="12" font-weight="500" text-anchor="end">Deno</text>
  <rect x="130" y="271" width="420" height="24" rx="5" fill="#2d2d3a"/>
  <rect x="130" y="271" width="416.8" height="24" rx="5" fill="hsl(1,68%,52%)"/>
  <text x="553.8028051472996" y="289" fill="#f8f9fa" font-size="11" font-weight="700">2.553 s</text>
  <text x="122" y="325" fill="#dee2e6" font-size="12" font-weight="500" text-anchor="end">Go</text>
  <rect x="130" y="307" width="420" height="24" rx="5" fill="#2d2d3a"/>
  <rect x="130" y="307" width="420.0" height="24" rx="5" fill="hsl(0,68%,52%)"/>
  <text x="557" y="325" fill="#f8f9fa" font-size="11" font-weight="700">2.572 s</text>
</svg>