<svg xmlns="http://www.w3.org/2000/svg" viewBox="0 0 640 351" width="100%" style="background:#1a1a22;font-family:system-ui,sans-serif;border-radius:10px;">
  <text x="16" y="34" fill="#f1f3f5" font-size="14" font-weight="700">N-Body (5-body Solar System) · 5 runs · Lower is better</text>
  <text x="122" y="73" fill="#dee2e6" font-size="12" font-weight="500" text-anchor="end">Zig</text>
  <rect x="130" y="55" width="420" height="24" rx="5" fill="#2d2d3a"/>
  <rect x="130" y="55" width="157.4" height="24" rx="5" fill="hsl(75,68%,52%)"/>
  <text x="294.43936295709875" y="73" fill="#f8f9fa" font-size="11" font-weight="700">462.7 ms</text>
  <text x="122" y="109" fill="#dee2e6" font-size="12" font-weight="500" text-anchor="end">C (GCC)</text>
  <rect x="130" y="91" width="420" height="24" rx="5" fill="#2d2d3a"/>
  <rect x="130" y="91" width="192.5" height="24" rx="5" fill="hsl(65,68%,52%)"/>
  <text x="329.51772309831915" y="109" fill="#f8f9fa" font-size="11" font-weight="700">565.8 ms</text>
  <text x="122" y="145" fill="#dee2e6" font-size="12" font-weight="500" text-anchor="end">Rust</text>
  <rect x="130" y="127" width="420" height="24" rx="5" fill="#2d2d3a"/>
  <rect x="130" y="127" width="197.7" height="24" rx="5" fill="hsl(64,68%,52%)"/>
  <text x="334.7359947439859" y="145" fill="#f8f9fa" font-size="11" font-weight="700">581.2 ms</text>
  <text x="122" y="181" fill="#dee2e6" font-size="12" font-weight="500" text-anchor="end">C++ (GCC)</text>
  <rect x="130" y="163" width="420" height="24" rx="5" fill="#2d2d3a"/>
  <rect x="130" y="163" width="205.8" height="24" rx="5" fill="hsl(61,68%,52%)"/>
  <text x="342.8285079619927" y="181" fill="#f8f9fa" font-size="11" font-weight="700">604.9 ms</text>
  <text x="122" y="217" fill="#dee2e6" font-size="12" font-weight="500" text-anchor="end">Deno</text>
  <rect x="130" y="199" width="420" height="24" rx="5" fill="#2d2d3a"/>
  <rect x="130" y="199" width="295.0" height="24" rx="5" fill="hsl(36,68%,52%)"/>
  <text x="432.0230638913818" y="217" fill="#f8f9fa" font-size="11" font-weight="700">867.1 ms</text>
  <text x="122" y="253" fill="#dee2e6" font-size="12" font-weight="500" text-anchor="end">Node.js</text>
  <rect x="130" y="235" width="420" height="24" rx="5" fill="#2d2d3a"/>
  <rect x="130" y="235" width="303.9" height="24" rx="5" fill="hsl(33,68%,52%)"/>
  <text x="440.9497113158831" y="253" fill="#f8f9fa" font-size="11" font-weight="700">893.3 ms</text>
  <text x="122" y="289" fill="#dee2e6" font-size="12" font-weight="500" text-anchor="end">Go</text>
  <rect x="130" y="271" width="420" height="24" rx="5" fill="#2d2d3a"/>
  <rect x="130" y="271" width="343.6" height="24" rx="5" fill="hsl(22,68%,52%)"/>
  <text x="480.63468989611874" y="289" fill="#f8f9fa" font-size="11" font-weight="700">1.010 s</text>
  <text x="122" y="325" fill="#dee2e6" font-size="12" font-weight="500" text-anchor="end">Bun</text>
  <rect x="130" y="307" width="420" height="24" rx="5" fill="#2d2d3a"/>
  <rect x="130" y="307" width="420.0" height="24" rx="5" fill="hsl(0,68%,52%)"/>
  <text x="557" y="325" fill="#f8f9fa" font-size="11" font-weight="700">1.234 s</text>
</svg>