<svg xmlns="http://www.w3.org/2000/svg" viewBox="0 0 640 351" width="100%" style="background:#1a1a22;font-family:system-ui,sans-serif;border-radius:10px;">
  <text x="16" y="34" fill="#f1f3f5" font-size="14" font-weight="700">Binary Trees · 5 runs · Lower is better</text>
  <text x="122" y="73" fill="#dee2e6" font-size="12" font-weight="500" text-anchor="end">C (GCC)</text>
  <rect x="130" y="55" width="420" height="24" rx="5" fill="#2d2d3a"/>
  <rect x="130" y="55" width="43.4" height="24" rx="5" fill="hsl(108,68%,52%)"/>
  <text x="180.44327765409275" y="73" fill="#f8f9fa" font-size="11" font-weight="700">102.4 ms</text>
  <text x="122" y="109" fill="#dee2e6" font-size="12" font-weight="500" text-anchor="end">C++ (GCC)</text>
  <rect x="130" y="91" width="420" height="24" rx="5" fill="#2d2d3a"/>
  <rect x="130" y="91" width="64.8" height="24" rx="5" fill="hsl(101,68%,52%)"/>
  <text x="201.83512400741955" y="109" fill="#f8f9fa" font-size="11" font-weight="700">152.8 ms</text>
  <text x="122" y="145" fill="#dee2e6" font-size="12" font-weight="500" text-anchor="end">Zig</text>
  <rect x="130" y="127" width="420" height="24" rx="5" fill="#2d2d3a"/>
  <rect x="130" y="127" width="108.7" height="24" rx="5" fill="hsl(89,68%,52%)"/>
  <text x="245.7279426633159" y="145" fill="#f8f9fa" font-size="11" font-weight="700">256.2 ms</text>
  <text x="122" y="181" fill="#dee2e6" font-size="12" font-weight="500" text-anchor="end">Rust</text>
  <rect x="130" y="163" width="420" height="24" rx="5" fill="#2d2d3a"/>
  <rect x="130" y="163" width="121.4" height="24" rx="5" fill="hsl(85,68%,52%)"/>
  <text x="258.35850456360134" y="181" fill="#f8f9fa" font-size="11" font-weight="700">286.0 ms</text>
  <text x="122" y="217" fill="#dee2e6" font-size="12" font-weight="500" text-anchor="end">Bun</text>
  <rect x="130" y="199" width="420" height="24" rx="5" fill="#2d2d3a"/>
  <rect x="130" y="199" width="204.2" height="24" rx="5" fill="hsl(62,68%,52%)"/>
  <text x="341.21056706867813" y="217" fill="#f8f9fa" font-size="11" font-weight="700">481.2 ms</text>
  <text x="122" y="253" fill="#dee2e6" font-size="12" font-weight="500" text-anchor="end">Deno</text>
  <rect x="130" y="235" width="420" height="24" rx="5" fill="#2d2d3a"/>
  <rect x="130" y="235" width="245.8" height="24" rx="5" fill="hsl(50,68%,52%)"/>
  <text x="382.8321044601477" y="253" fill="#f8f9fa" font-size="11" font-weight="700">579.3 ms</text>
  <text x="122" y="289" fill="#dee2e6" font-size="12" font-weight="500" text-anchor="end">Node.js</text>
  <rect x="130" y="271" width="420" height="24" rx="5" fill="#2d2d3a"/>
  <rect x="130" y="271" width="252.5" height="24" rx="5" fill="hsl(48,68%,52%)"/>
  <text x="389.4632261841135" y="289" fill="#f8f9fa" font-size="11" font-weight="700">594.9 ms</text>
  <text x="122" y="325" fill="#dee2e6" font-size="12" font-weight="500" text-anchor="end">Go</text>
  <rect x="130" y="307" width="420" height="24" rx="5" fill="#2d2d3a"/>
  <rect x="130" y="307" width="420.0" height="24" rx="5" fill="hsl(0,68%,52%)"/>
  <text x="557" y="325" fill="#f8f9fa" font-size="11" font-weight="700">989.7 ms</text>
</svg>