<svg xmlns="http://www.w3.org/2000/svg" viewBox="0 0 640 459" width="100%" style="background:#1a1a22;font-family:system-ui,sans-serif;border-radius:10px;">
  <text x="16" y="34" fill="#f1f3f5" font-size="14" font-weight="700">N-Body (5-body Solar System) · 30 runs · Lower is better</text>
  <text x="122" y="73" fill="#dee2e6" font-size="12" font-weight="500" text-anchor="end">Zig</text>
  <rect x="130" y="55" width="420" height="24" rx="5" fill="#2d2d3a"/>
  <rect x="130" y="55" width="75.5" height="24" rx="5" fill="hsl(98,68%,52%)"/>
  <text x="212.51964275379726" y="73" fill="#f8f9fa" font-size="11" font-weight="700">722 ms</text>
  <text x="122" y="109" fill="#dee2e6" font-size="12" font-weight="500" text-anchor="end">Rust</text>
  <rect x="130" y="91" width="420" height="24" rx="5" fill="#2d2d3a"/>
  <rect x="130" y="91" width="99.0" height="24" rx="5" fill="hsl(92,68%,52%)"/>
  <text x="235.97024753463018" y="109" fill="#f8f9fa" font-size="11" font-weight="700">946 ms</text>
  <text x="122" y="145" fill="#dee2e6" font-size="12" font-weight="500" text-anchor="end">C++ (GCC)</text>
  <rect x="130" y="127" width="420" height="24" rx="5" fill="#2d2d3a"/>
  <rect x="130" y="127" width="112.2" height="24" rx="5" fill="hsl(88,68%,52%)"/>
  <text x="249.16453858592632" y="145" fill="#f8f9fa" font-size="11" font-weight="700">1.072 s</text>
  <text x="122" y="181" fill="#dee2e6" font-size="12" font-weight="500" text-anchor="end">C (GCC)</text>
  <rect x="130" y="163" width="420" height="24" rx="5" fill="#2d2d3a"/>
  <rect x="130" y="163" width="116.1" height="24" rx="5" fill="hsl(87,68%,52%)"/>
  <text x="253.05045817741356" y="181" fill="#f8f9fa" font-size="11" font-weight="700">1.109 s</text>
  <text x="122" y="217" fill="#dee2e6" font-size="12" font-weight="500" text-anchor="end">C++ (MSVC)</text>
  <rect x="130" y="199" width="420" height="24" rx="5" fill="#2d2d3a"/>
  <rect x="130" y="199" width="146.1" height="24" rx="5" fill="hsl(78,68%,52%)"/>
  <text x="283.1009993780755" y="217" fill="#f8f9fa" font-size="11" font-weight="700">1.396 s</text>
  <text x="122" y="253" fill="#dee2e6" font-size="12" font-weight="500" text-anchor="end">Go</text>
  <rect x="130" y="235" width="420" height="24" rx="5" fill="#2d2d3a"/>
  <rect x="130" y="235" width="191.6" height="24" rx="5" fill="hsl(65,68%,52%)"/>
  <text x="328.62756596740087" y="253" fill="#f8f9fa" font-size="11" font-weight="700">1.831 s</text>
  <text x="122" y="289" fill="#dee2e6" font-size="12" font-weight="500" text-anchor="end">Node.js</text>
  <rect x="130" y="271" width="420" height="24" rx="5" fill="#2d2d3a"/>
  <rect x="130" y="271" width="268.5" height="24" rx="5" fill="hsl(43,68%,52%)"/>
  <text x="405.4512652511764" y="289" fill="#f8f9fa" font-size="11" font-weight="700">2.565 s</text>
  <text x="122" y="325" fill="#dee2e6" font-size="12" font-weight="500" text-anchor="end">Deno</text>
  <rect x="130" y="307" width="420" height="24" rx="5" fill="#2d2d3a"/>
  <rect x="130" y="307" width="270.1" height="24" rx="5" fill="hsl(43,68%,52%)"/>
  <text x="407.12513408004787" y="325" fill="#f8f9fa" font-size="11" font-weight="700">2.581 s</text>
  <text x="122" y="361" fill="#dee2e6" font-size="12" font-weight="500" text-anchor="end">Julia</text>
  <rect x="130" y="343" width="420" height="24" rx="5" fill="#2d2d3a"/>
  <rect x="130" y="343" width="276.7" height="24" rx="5" fill="hsl(41,68%,52%)"/>
  <text x="413.7353396509173" y="361" fill="#f8f9fa" font-size="11" font-weight="700">2.644 s</text>
  <text x="122" y="397" fill="#dee2e6" font-size="12" font-weight="500" text-anchor="end">Bun</text>
  <rect x="130" y="379" width="420" height="24" rx="5" fill="#2d2d3a"/>
  <rect x="130" y="379" width="324.0" height="24" rx="5" fill="hsl(27,68%,52%)"/>
  <text x="461.0255797333423" y="397" fill="#f8f9fa" font-size="11" font-weight="700">3.096 s</text>
  <text x="122" y="433" fill="#dee2e6" font-size="12" font-weight="500" text-anchor="end">LuaJIT</text>
  <rect x="130" y="415" width="420" height="24" rx="5" fill="#2d2d3a"/>
  <rect x="130" y="415" width="420.0" height="24" rx="5" fill="hsl(0,68%,52%)"/>
  <text x="557" y="433" fill="#f8f9fa" font-size="11" font-weight="700">4.013 s</text>
</svg>