<svg xmlns="http://www.w3.org/2000/svg" viewBox="0 0 600 454" width="100%" style="background-color: #1e1e24; font-family: system-ui, -apple-system, sans-serif; border-radius: 8px;">
  <text x="20" y="30" fill="#f8f9fa" font-size="16" font-weight="bold">N-Body Simulation Speed Comparison (Lower is Better)</text>
  <text x="110" y="68" fill="#e9ecef" font-size="12" font-weight="500" text-anchor="end">Zig</text>
  <rect x="120" y="50" width="400" height="24" rx="4" fill="#2d2d35" />
  <rect x="120" y="50" width="72.33270812844502" height="24" rx="4" fill="hsl(98, 70%, 55%)" />
  <text x="200.332708128445" y="68" fill="#f8f9fa" font-size="12" font-weight="bold">711.1 ms</text>
  <text x="110" y="104" fill="#e9ecef" font-size="12" font-weight="500" text-anchor="end">Rust</text>
  <rect x="120" y="86" width="400" height="24" rx="4" fill="#2d2d35" />
  <rect x="120" y="86" width="76.23010452184015" height="24" rx="4" fill="hsl(97, 70%, 55%)" />
  <text x="204.23010452184013" y="104" fill="#f8f9fa" font-size="12" font-weight="bold">749.4 ms</text>
  <text x="110" y="140" fill="#e9ecef" font-size="12" font-weight="500" text-anchor="end">C++ (GCC)</text>
  <rect x="120" y="122" width="400" height="24" rx="4" fill="#2d2d35" />
  <rect x="120" y="122" width="108.08879133635476" height="24" rx="4" fill="hsl(88, 70%, 55%)" />
  <text x="236.08879133635475" y="140" fill="#f8f9fa" font-size="12" font-weight="bold">1.063 s</text>
  <text x="110" y="176" fill="#e9ecef" font-size="12" font-weight="500" text-anchor="end">C (GCC)</text>
  <rect x="120" y="158" width="400" height="24" rx="4" fill="#2d2d35" />
  <rect x="120" y="158" width="113.10013063084324" height="24" rx="4" fill="hsl(86, 70%, 55%)" />
  <text x="241.10013063084324" y="176" fill="#f8f9fa" font-size="12" font-weight="bold">1.112 s</text>
  <text x="110" y="212" fill="#e9ecef" font-size="12" font-weight="500" text-anchor="end">C++ (MSVC)</text>
  <rect x="120" y="194" width="400" height="24" rx="4" fill="#2d2d35" />
  <rect x="120" y="194" width="166.72518084357006" height="24" rx="4" fill="hsl(70, 70%, 55%)" />
  <text x="294.72518084357006" y="212" fill="#f8f9fa" font-size="12" font-weight="bold">1.639 s</text>
  <text x="110" y="248" fill="#e9ecef" font-size="12" font-weight="500" text-anchor="end">Go</text>
  <rect x="120" y="230" width="400" height="24" rx="4" fill="#2d2d35" />
  <rect x="120" y="230" width="176.70877182505112" height="24" rx="4" fill="hsl(67, 70%, 55%)" />
  <text x="304.70877182505114" y="248" fill="#f8f9fa" font-size="12" font-weight="bold">1.737 s</text>
  <text x="110" y="284" fill="#e9ecef" font-size="12" font-weight="500" text-anchor="end">Julia</text>
  <rect x="120" y="266" width="400" height="24" rx="4" fill="#2d2d35" />
  <rect x="120" y="266" width="244.27367173231676" height="24" rx="4" fill="hsl(47, 70%, 55%)" />
  <text x="372.27367173231676" y="284" fill="#f8f9fa" font-size="12" font-weight="bold">2.401 s</text>
  <text x="110" y="320" fill="#e9ecef" font-size="12" font-weight="500" text-anchor="end">Node.js</text>
  <rect x="120" y="302" width="400" height="24" rx="4" fill="#2d2d35" />
  <rect x="120" y="302" width="251.39316420191898" height="24" rx="4" fill="hsl(45, 70%, 55%)" />
  <text x="379.393164201919" y="320" fill="#f8f9fa" font-size="12" font-weight="bold">2.471 s</text>
  <text x="110" y="356" fill="#e9ecef" font-size="12" font-weight="500" text-anchor="end">Deno</text>
  <rect x="120" y="338" width="400" height="24" rx="4" fill="#2d2d35" />
  <rect x="120" y="338" width="258.290783180349" height="24" rx="4" fill="hsl(43, 70%, 55%)" />
  <text x="386.290783180349" y="356" fill="#f8f9fa" font-size="12" font-weight="bold">2.539 s</text>
  <text x="110" y="392" fill="#e9ecef" font-size="12" font-weight="500" text-anchor="end">Bun</text>
  <rect x="120" y="374" width="400" height="24" rx="4" fill="#2d2d35" />
  <rect x="120" y="374" width="301.2369517320867" height="24" rx="4" fill="hsl(30, 70%, 55%)" />
  <text x="429.2369517320867" y="392" fill="#f8f9fa" font-size="12" font-weight="bold">2.961 s</text>
  <text x="110" y="428" fill="#e9ecef" font-size="12" font-weight="500" text-anchor="end">LuaJIT</text>
  <rect x="120" y="410" width="400" height="24" rx="4" fill="#2d2d35" />
  <rect x="120" y="410" width="400" height="24" rx="4" fill="hsl(0, 70%, 55%)" />
  <text x="528" y="428" fill="#f8f9fa" font-size="12" font-weight="bold">3.932 s</text>
</svg>